<svg width="30" height="30" viewBox="0 0 30 30" fill="none" xmlns="http://www.w3.org/2000/svg">
<circle cx="15" cy="15" r="15" fill="black"/>
<path d="M15.4659 12H13.7045C13.6004 11.4934 13.4181 11.0483 13.1577 10.6648C12.902 10.2812 12.5895 9.95928 12.2202 9.69886C11.8556 9.43371 11.4508 9.23485 11.0057 9.10227C10.5606 8.9697 10.0966 8.90341 9.61364 8.90341C8.73295 8.90341 7.93513 9.12595 7.22017 9.57102C6.50994 10.0161 5.94413 10.6719 5.52273 11.5384C5.10606 12.4048 4.89773 13.4678 4.89773 14.7273C4.89773 15.9867 5.10606 17.0497 5.52273 17.9162C5.94413 18.7827 6.50994 19.4384 7.22017 19.8835C7.93513 20.3286 8.73295 20.5511 9.61364 20.5511C10.0966 20.5511 10.5606 20.4848 11.0057 20.3523C11.4508 20.2197 11.8556 20.0232 12.2202 19.7628C12.5895 19.4976 12.902 19.1733 13.1577 18.7898C13.4181 18.4015 13.6004 17.9564 13.7045 17.4545H15.4659C15.3333 18.1979 15.0919 18.8632 14.7415 19.4503C14.3911 20.0374 13.9555 20.5369 13.4347 20.9489C12.9138 21.3561 12.3291 21.6662 11.6804 21.8793C11.0365 22.0923 10.3475 22.1989 9.61364 22.1989C8.37311 22.1989 7.26989 21.8958 6.30398 21.2898C5.33807 20.6837 4.57813 19.822 4.02415 18.7045C3.47017 17.5871 3.19318 16.2614 3.19318 14.7273C3.19318 13.1932 3.47017 11.8674 4.02415 10.75C4.57813 9.63258 5.33807 8.77083 6.30398 8.16477C7.26989 7.55871 8.37311 7.25568 9.61364 7.25568C10.3475 7.25568 11.0365 7.36222 11.6804 7.57528C12.3291 7.78835 12.9138 8.10085 13.4347 8.51278C13.9555 8.91998 14.3911 9.41714 14.7415 10.0043C15.0919 10.5866 15.3333 11.2519 15.4659 12Z" fill="white"/>
<path d="M21.7071 8.29289C21.3166 7.90237 20.6834 7.90237 20.2929 8.29289L13.9289 14.6569C13.5384 15.0474 13.5384 15.6805 13.9289 16.0711C14.3195 16.4616 14.9526 16.4616 15.3431 16.0711L21 10.4142L26.6569 16.0711C27.0474 16.4616 27.6805 16.4616 28.0711 16.0711C28.4616 15.6805 28.4616 15.0474 28.0711 14.6569L21.7071 8.29289ZM22 22L22 9H20L20 22H22Z" fill="white"/>
</svg>
